<svg width="64" height="72" viewBox="0 0 64 72" fill="none" xmlns="http://www.w3.org/2000/svg">
<circle cx="32" cy="37" r="26" stroke="#FEF9F6" stroke-width="12"/>
<circle opacity="0.2" cx="32" cy="37" r="28.5" stroke="#FF6100"/>
<circle cx="32" cy="37" r="19" fill="#FF6100"/>
<path d="M29.2424 34.856L25.5744 34.744C25.4811 34.3333 25.4344 33.9133 25.4344 33.484C25.4344 31.804 26.0318 30.376 27.2264 29.2C28.4211 28.0053 30.0358 27.408 32.0704 27.408C34.0491 27.408 35.6358 27.9773 36.8304 29.116C38.0251 30.236 38.6224 31.6173 38.6224 33.26C38.6224 35.5747 37.4464 37.4507 35.0944 38.888L31.5944 41.016C30.7731 41.5387 30.2504 42.0893 30.0264 42.668H38.7344V46H25.2944C25.3131 44.3013 25.6398 42.8173 26.2744 41.548C26.9278 40.2787 28.0291 39.1773 29.5784 38.244L32.5744 36.452C34.0118 35.5933 34.7304 34.548 34.7304 33.316C34.7304 32.6253 34.4878 32.0373 34.0024 31.552C33.5358 31.0667 32.8638 30.824 31.9864 30.824C31.0531 30.824 30.3344 31.104 29.8304 31.664C29.3451 32.224 29.1024 32.952 29.1024 33.848C29.1024 34.184 29.1491 34.52 29.2424 34.856Z" fill="white"/>
</svg>
