<svg width="64" height="72" viewBox="0 0 64 72" fill="none" xmlns="http://www.w3.org/2000/svg">
<circle cx="32" cy="37" r="26" stroke="#FFFDFC" stroke-width="12"/>
<circle opacity="0.2" cx="32" cy="37" r="28.5" stroke="#FF6100"/>
<circle cx="32" cy="37" r="19" fill="#FF6100"/>
<path d="M30.3084 37.936L28.6004 35.248L33.3604 31.16H25.4084V27.828H38.2604V30.936L33.5564 34.856C34.9937 34.912 36.2257 35.4533 37.2524 36.48C38.2977 37.488 38.8204 38.7947 38.8204 40.4C38.8204 42.0427 38.1857 43.4613 36.9164 44.656C35.6471 45.832 33.9577 46.42 31.8484 46.42C29.8137 46.42 28.1617 45.86 26.8924 44.74C25.6231 43.6013 24.9324 42.2293 24.8204 40.624L28.5444 39.896C28.5817 40.8293 28.8991 41.5947 29.4964 42.192C30.1124 42.7893 30.8964 43.088 31.8484 43.088C32.7817 43.088 33.5284 42.8267 34.0884 42.304C34.6484 41.7813 34.9284 41.128 34.9284 40.344C34.9284 39.504 34.6484 38.8507 34.0884 38.384C33.5471 37.8987 32.8377 37.656 31.9604 37.656C31.3817 37.656 30.8311 37.7493 30.3084 37.936Z" fill="white"/>
</svg>
